<svg xmlns="http://www.w3.org/2000/svg" xmlns:xlink="http://www.w3.org/1999/xlink" viewBox="0 0 370.85 799.02"><defs><style>.cls-1{clip-path:url(#clip-path);}.cls-2,.cls-28{fill:none;}.cls-2{clip-path:url(#clip-path-26);}.cls-3{fill:url(#linear-gradient);}.cls-4{fill:url(#linear-gradient-2);}.cls-5{fill:url(#linear-gradient-3);}.cls-6{fill:url(#linear-gradient-4);}.cls-7{fill:url(#linear-gradient-5);}.cls-8{fill:url(#linear-gradient-6);}.cls-9{fill:url(#linear-gradient-7);}.cls-10{fill:url(#linear-gradient-8);}.cls-11{fill:url(#linear-gradient-9);}.cls-12{fill:url(#linear-gradient-10);}.cls-13{fill:url(#linear-gradient-11);}.cls-14{fill:url(#linear-gradient-12);}.cls-15{fill:url(#linear-gradient-13);}.cls-16{fill:url(#linear-gradient-14);}.cls-17{fill:url(#linear-gradient-15);}.cls-18{fill:url(#linear-gradient-16);}.cls-19{fill:url(#linear-gradient-17);}.cls-20{fill:url(#linear-gradient-18);}.cls-21{fill:url(#linear-gradient-19);}.cls-22{fill:url(#linear-gradient-20);}.cls-23{fill:url(#linear-gradient-21);}.cls-24{fill:url(#linear-gradient-22);}.cls-25{fill:url(#linear-gradient-23);}.cls-26{fill:url(#linear-gradient-24);}.cls-27{fill:url(#linear-gradient-25);}.cls-29{fill:#e88e72;}.cls-30{fill:#fcb095;}.cls-31{clip-path:url(#clip-path-76);}.cls-32{mask:url(#mask);}.cls-33{fill:url(#linear-gradient-27);}.cls-34{mask:url(#mask-2);}.cls-35{fill:url(#linear-gradient-29);}.cls-36{fill:#e9e9f0;}.cls-37{fill:url(#linear-gradient-30);}.cls-38{fill:url(#linear-gradient-31);}.cls-39{fill:url(#linear-gradient-32);}.cls-40{fill:url(#linear-gradient-33);}.cls-41{fill:url(#linear-gradient-34);}.cls-42{mask:url(#mask-3);}.cls-43{fill:url(#linear-gradient-36);}.cls-44{fill:url(#linear-gradient-37);}.cls-45{fill:url(#linear-gradient-38);}.cls-46{mask:url(#mask-4);}.cls-47{fill:url(#linear-gradient-40);}.cls-48{fill:url(#linear-gradient-41);}.cls-49{fill:url(#linear-gradient-42);}.cls-50{fill:url(#linear-gradient-43);}.cls-51{fill:url(#linear-gradient-44);}.cls-52{fill:url(#linear-gradient-45);}.cls-53{mask:url(#mask-5);}.cls-54{fill:url(#linear-gradient-47);}.cls-55{mask:url(#mask-6);}.cls-56{fill:url(#linear-gradient-49);}.cls-57{fill:url(#linear-gradient-50);}.cls-58{mask:url(#mask-7);}.cls-59{fill:url(#linear-gradient-52);}.cls-60{mask:url(#mask-8);}.cls-61{fill:url(#linear-gradient-54);}.cls-62{fill:url(#linear-gradient-55);}.cls-63{mask:url(#mask-9);}.cls-64{fill:url(#linear-gradient-57);}.cls-65{mask:url(#mask-10);}.cls-66{fill:url(#linear-gradient-59);}.cls-67{mask:url(#mask-11);}.cls-68{fill:url(#linear-gradient-61);}.cls-69{mask:url(#mask-12);}.cls-70{fill:url(#linear-gradient-63);}.cls-71{fill:url(#linear-gradient-64);}.cls-72{mask:url(#mask-13);}.cls-73{fill:url(#linear-gradient-66);}.cls-74{fill:url(#linear-gradient-67);}.cls-75{mask:url(#mask-14);}.cls-76{fill:url(#linear-gradient-69);}.cls-77{fill:url(#linear-gradient-70);}.cls-78{fill:url(#linear-gradient-71);}.cls-79{mask:url(#mask-15);}.cls-80{fill:url(#linear-gradient-73);}.cls-81{mask:url(#mask-16);}.cls-82{fill:url(#linear-gradient-75);}.cls-83{mask:url(#mask-17);}.cls-84{fill:url(#linear-gradient-77);}.cls-85{mask:url(#mask-18);}.cls-86{fill:url(#linear-gradient-79);}.cls-87{mask:url(#mask-19);}.cls-88{fill:url(#linear-gradient-81);}.cls-89{fill:url(#linear-gradient-82);}.cls-90{mask:url(#mask-20);}.cls-91{fill:url(#linear-gradient-84);}.cls-92{mask:url(#mask-21);}.cls-93{fill:url(#linear-gradient-86);}.cls-94{mask:url(#mask-22);}.cls-95{fill:url(#linear-gradient-88);}.cls-96{fill:url(#linear-gradient-89);}.cls-97{mask:url(#mask-23);}.cls-98{fill:url(#linear-gradient-91);}.cls-99{fill:#fff;}.cls-100{fill:url(#linear-gradient-92);}.cls-101{fill:url(#linear-gradient-93);}.cls-102{fill:url(#linear-gradient-94);}.cls-103{fill:url(#linear-gradient-95);}.cls-104{fill:url(#linear-gradient-96);}.cls-105{mask:url(#mask-24);}.cls-106{fill:url(#linear-gradient-98);}.cls-107{fill:url(#linear-gradient-99);}.cls-108{mask:url(#mask-25);}.cls-109{fill:url(#linear-gradient-101);}.cls-110{fill:url(#linear-gradient-102);}</style><clipPath id="clip-path"><polygon class="cls-2" points="1 1 0 1 1 0 1 1"/></clipPath><linearGradient id="linear-gradient" x1="-9048.42" y1="2213.48" x2="-8911.03" y2="2326.73" gradientTransform="translate(-8702.25 1646.16) rotate(-174.68)" gradientUnits="userSpaceOnUse"><stop offset="0" stop-color="#fff"/><stop offset="1"/></linearGradient><linearGradient id="linear-gradient-2" x1="-9122.7" y1="2149.54" x2="-8863.41" y2="2331.92" xlink:href="#linear-gradient"/><linearGradient id="linear-gradient-3" x1="-8454.47" y1="1692.44" x2="-9188.15" y2="1780.78" gradientTransform="translate(-8590.96 2054.62) rotate(180)" xlink:href="#linear-gradient"/><linearGradient id="linear-gradient-4" x1="-9981.82" y1="1772.69" x2="-8328.12" y2="1553.2" gradientTransform="translate(-8590.96 2054.62) rotate(180)" xlink:href="#linear-gradient"/><linearGradient id="linear-gradient-5" x1="-8796.5" y1="2213.9" x2="-8806.96" y2="1577.33" gradientTransform="translate(-8590.96 2054.62) rotate(180)" xlink:href="#linear-gradient"/><linearGradient id="linear-gradient-6" x1="-8815.68" y1="1949.46" x2="-8741.87" y2="1808.47" gradientTransform="translate(-8590.96 2054.62) rotate(180)" xlink:href="#linear-gradient"/><linearGradient id="linear-gradient-7" x1="-8665.95" y1="1626.32" x2="-8823.72" y2="1545.97" gradientTransform="translate(-8590.96 2054.62) rotate(180)" xlink:href="#linear-gradient"/><linearGradient id="linear-gradient-8" x1="-8815.63" y1="1477.79" x2="-8718.19" y2="1613.94" gradientTransform="translate(-8590.96 2054.62) rotate(180)" xlink:href="#linear-gradient"/><linearGradient id="linear-gradient-9" x1="-8757.7" y1="1554.7" x2="-8752.84" y2="1561.48" gradientTransform="translate(-8590.96 2054.62) rotate(180)" xlink:href="#linear-gradient"/><linearGradient id="linear-gradient-10" x1="-8817" y1="1465.16" x2="-8695.76" y2="1634.56" gradientTransform="translate(-8590.96 2054.62) rotate(180)" xlink:href="#linear-gradient"/><linearGradient id="linear-gradient-11" x1="-8894.95" y1="1405.38" x2="-8650.74" y2="1746.59" gradientTransform="translate(-8590.96 2054.62) rotate(180)" xlink:href="#linear-gradient"/><linearGradient id="linear-gradient-12" x1="-8867.42" y1="1715.56" x2="-8665" y2="1732.51" gradientTransform="translate(-8590.96 2054.62) rotate(180)" xlink:href="#linear-gradient"/><linearGradient id="linear-gradient-13" x1="-8837.51" y1="1195.46" x2="-8652.37" y2="1288.5" gradientTransform="translate(-8590.96 2054.62) rotate(180)" xlink:href="#linear-gradient"/><linearGradient id="linear-gradient-14" x1="-8790.48" y1="2008.32" x2="-8788.42" y2="1911.11" gradientTransform="translate(-8590.96 2054.62) rotate(180)" xlink:href="#linear-gradient"/><linearGradient id="linear-gradient-15" x1="-8816.15" y1="1949.44" x2="-8715.56" y2="1919.31" gradientTransform="translate(-8590.96 2054.62) rotate(180)" xlink:href="#linear-gradient"/><linearGradient id="linear-gradient-16" x1="-8816.83" y1="1934.11" x2="-8795.75" y2="1935.08" gradientTransform="translate(-8590.96 2054.62) rotate(180)" xlink:href="#linear-gradient"/><linearGradient id="linear-gradient-17" x1="-8855.42" y1="1513.18" x2="-8856.19" y2="1491.02" gradientTransform="translate(-8538.72 2224.65) rotate(177.54)" xlink:href="#linear-gradient"/><linearGradient id="linear-gradient-18" x1="-8859.23" y1="1472.05" x2="-8860.01" y2="1449.88" gradientTransform="translate(-8538.72 2224.65) rotate(177.54)" xlink:href="#linear-gradient"/><linearGradient id="linear-gradient-19" x1="-8859.93" y1="1312.45" x2="-8870.68" y2="1154.86" gradientTransform="translate(-8590.96 2054.62) rotate(180)" xlink:href="#linear-gradient"/><linearGradient id="linear-gradient-20" x1="-8598.16" y1="1541.67" x2="-8973.81" y2="1430.96" gradientTransform="translate(-8590.96 2054.62) rotate(180)" xlink:href="#linear-gradient"/><linearGradient id="linear-gradient-21" x1="-8772.69" y1="1487.06" x2="-8911.48" y2="1452.59" gradientTransform="translate(-8590.96 2054.62) rotate(180)" xlink:href="#linear-gradient"/><linearGradient id="linear-gradient-22" x1="-8582.87" y1="1559.85" x2="-8925.46" y2="1433" gradientTransform="translate(-8590.96 2054.62) rotate(180)" xlink:href="#linear-gradient"/><linearGradient id="linear-gradient-23" x1="-8574.13" y1="1550.96" x2="-8897.7" y2="1448.97" gradientTransform="translate(-8590.96 2054.62) rotate(180)" xlink:href="#linear-gradient"/><linearGradient id="linear-gradient-24" x1="-8274.74" y1="1694.79" x2="-9182.39" y2="1795.81" gradientTransform="translate(-8590.96 2054.62) rotate(180)" xlink:href="#linear-gradient"/><linearGradient id="linear-gradient-25" x1="-9967.17" y1="1883.07" x2="-8313.46" y2="1663.58" gradientTransform="translate(-8590.96 2054.62) rotate(180)" xlink:href="#linear-gradient"/><clipPath id="clip-path-26"><polygon class="cls-28" points="3 3 4 3 3 4 3 3"/></clipPath><clipPath id="clip-path-76" transform="translate(-104.02 -50.11)"><polygon class="cls-2" points="1 1 0 1 1 0 1 1"/></clipPath><mask id="mask" x="-104.02" y="-50.11" width="472.76" height="254.16" maskUnits="userSpaceOnUse"><g transform="translate(-104.02 -50.11)"><g class="cls-1"><path class="cls-3" d="M401.58,239.23l10-14.49c-.1-.56-.18-1.11-.24-1.66.54.21,1.07.43,1.61.61-.63-6,5.63-14.5,10.11-17.36,10.29-6.59,15.62-15.39,25.17-28.22-4.43,9.13-8.2,21.87-4.88,24.67,2.9-4.22,11.24-19.78,18.9-31.6-7.41,14.8-16.2,29.7-10,32.91,3.77-6.76,21.2-34.11,19.38-31.31a4.36,4.36,0,0,1,1.2.37c-5.36,8.52-13.51,17.6-12.37,27a50.62,50.62,0,0,1-3.73,6.23c-2.12,2.27-15.49,13.21-19.13,17.46s-16.41,27.23-16.41,27.23l3.74,3.08Z"/></g></g></mask><linearGradient id="linear-gradient-27" x1="-9048.42" y1="2213.48" x2="-8911.03" y2="2326.73" gradientTransform="translate(-8702.25 1646.16) rotate(-174.68)" gradientUnits="userSpaceOnUse"><stop offset="0" stop-color="#ed1c24"/><stop offset="1" stop-color="#fff"/></linearGradient><mask id="mask-2" x="-104.02" y="-50.11" width="456.93" height="254.16" maskUnits="userSpaceOnUse"><g transform="translate(-104.02 -50.11)"><g class="cls-1"><path class="cls-4" d="M414.35,227.41c7.76-6.44,17.13-17.26,20.18-18.86,5.1-2.62,15.56-2.53,22.4-2.49l-.27.33c-2.12,2.27-15.49,13.21-19.13,17.46s-16.41,27.23-16.41,27.23l3.74,3.08-23.28-14.93,5.55-8.08a40.49,40.49,0,0,0,15.64,8.38C419.61,235.06,411.77,229.56,414.35,227.41Z"/></g></g></mask><linearGradient id="linear-gradient-29" x1="-9122.7" y1="2149.54" x2="-8863.41" y2="2331.92" xlink:href="#linear-gradient-27"/><linearGradient id="linear-gradient-30" x1="-8856.08" y1="1063.47" x2="-8947.57" y2="1917.41" gradientTransform="translate(-8590.96 2054.62) rotate(180)" gradientUnits="userSpaceOnUse"><stop offset="0" stop-color="#01023d"/><stop offset="1" stop-color="#4c5c7f"/></linearGradient><linearGradient id="linear-gradient-31" x1="-8852.81" y1="1525.88" x2="-8968.28" y2="1944.23" xlink:href="#linear-gradient-30"/><linearGradient id="linear-gradient-32" x1="-8891.74" y1="1648.67" x2="-8955.13" y2="1902.75" xlink:href="#linear-gradient-30"/><linearGradient id="linear-gradient-33" x1="-8670.76" y1="1284.89" x2="-8763.8" y2="1218.2" gradientTransform="translate(-8590.96 2054.62) rotate(180)" gradientUnits="userSpaceOnUse"><stop offset="0" stop-color="#191b65"/><stop offset="1" stop-color="#07060c"/></linearGradient><linearGradient id="linear-gradient-34" x1="-8696.17" y1="1279.56" x2="-8826.68" y2="1170.24" xlink:href="#linear-gradient-33"/><mask id="mask-3" x="-104.02" y="-50.11" width="180.75" height="841.71" maskUnits="userSpaceOnUse"><g transform="translate(-104.02 -50.11)"><g class="cls-1"><path class="cls-15" d="M115.32,822.38c.34-.65.89-1.55,1.58-2.63.53,7.39,3.39,13.76,11,14.64,9.57,1,26.85-4.56,30.63-18.69,3.64-13.68,13-22.19,12.71-23-4.36-10.19-16.53-19.93-28.75-17.21l.11-.29c6.34-17.67,37.57,11.4,37.57,11.4s1.64,6.2-.49,8.55-10.32,7.15-11.64,13.52-2.53,11.36-3.56,14.75c-2.29,7.59-27.6,20.72-38.82,18S112.7,827.4,115.32,822.38Z"/></g></g></mask><linearGradient id="linear-gradient-36" x1="-8837.51" y1="1195.46" x2="-8652.37" y2="1288.5" gradientTransform="translate(-8590.96 2054.62) rotate(180)" gradientUnits="userSpaceOnUse"><stop offset="0" stop-color="#191b65"/><stop offset="1" stop-color="#fff"/></linearGradient><linearGradient id="linear-gradient-37" x1="-8664.01" y1="1309.82" x2="-8808.82" y2="1217.56" xlink:href="#linear-gradient-33"/><linearGradient id="linear-gradient-38" x1="-8882.47" y1="1294.3" x2="-8853.7" y2="1203.03" xlink:href="#linear-gradient-33"/><mask id="mask-4" x="-104.02" y="-50.11" width="331.69" height="832.1" maskUnits="userSpaceOnUse"><g transform="translate(-104.02 -50.11)"><g class="cls-1"><path class="cls-21" d="M221.33,787.16c.73,3,40.24-15.12,42.49-12.78-20,10.71-17.59,21.19-34.41,23.89,5.72,3.18,14-.63,18.43,4.45,5.72,7,11.44,13.35,19.06,15.89,18.22,6.27,39.49,7.93,57.44-1.38,6.35,5.78,7.35,11.44,7.35,11.44s-54.15,6.13-64.36,2-28.56-18.12-28.56-18.12c-5.48-1.48-21.89-2.77-22.16-5.23A206.49,206.49,0,0,1,221.33,787.16Z"/></g></g></mask><linearGradient id="linear-gradient-40" x1="-8859.93" y1="1312.45" x2="-8870.68" y2="1154.86" xlink:href="#linear-gradient-36"/><linearGradient id="linear-gradient-41" x1="-8901.86" y1="1322.86" x2="-8887.98" y2="1244.51" xlink:href="#linear-gradient-33"/><linearGradient id="linear-gradient-42" x1="-8836.08" y1="1334.54" x2="-8822.19" y2="1256.17" xlink:href="#linear-gradient-33"/><linearGradient id="linear-gradient-43" x1="-8903.35" y1="1337.18" x2="-8840.85" y2="1207.21" xlink:href="#linear-gradient-33"/><linearGradient id="linear-gradient-44" x1="-8979.49" y1="1567.37" x2="-8802.24" y2="916.91" gradientTransform="translate(-8590.96 2054.62) rotate(180)" gradientUnits="userSpaceOnUse"><stop offset="0" stop-color="#fff"/><stop offset="0.05" stop-color="#ddd"/><stop offset="0.14" stop-color="#a3a3a3"/><stop offset="0.23" stop-color="#717171"/><stop offset="0.31" stop-color="#494949"/><stop offset="0.4" stop-color="#292929"/><stop offset="0.48" stop-color="#121212"/><stop offset="0.56" stop-color="#050505"/><stop offset="0.63"/></linearGradient><linearGradient id="linear-gradient-45" x1="-8911.65" y1="1751.77" x2="-8771.92" y2="1109.01" xlink:href="#linear-gradient-30"/><mask id="mask-5" x="-104.02" y="-50.11" width="309.3" height="790.14" maskUnits="userSpaceOnUse"><g transform="translate(-104.02 -50.11)"><g class="cls-1"><path class="cls-22" d="M219.79,787.71S226.58,646.38,230,625.14s-.29-100.26-.29-100.26,11.61-209.3,79.57-122.35c0,0,.23,14.58-.39,39.52a36.38,36.38,0,0,0-13.58,9.17c-1.08,1.63-2.71,5.42-1.62,8.13,3.79,6.5,6,14.09,3.79,21.14-1.62,3.79-7.58,4.87-11.38,7.58-7.58,6.51-13.54,14.09-16.25,23.31-6,18.42-13.54,35.77-17.34,54.73-6,29.27-8.12,58,8.13,84.55,1.08,1.63,1.08,4.34.54,6.5-9.75,35.23-22.75,68.29-24.92,104.06q-1.08,14-.8,28C227.86,792,219.79,787.71,219.79,787.71Z"/></g></g></mask><linearGradient id="linear-gradient-47" x1="-8598.16" y1="1541.67" x2="-8973.81" y2="1430.96" xlink:href="#linear-gradient-36"/><mask id="mask-6" x="-104.02" y="-50.11" width="309.28" height="789.39" maskUnits="userSpaceOnUse"><g transform="translate(-104.02 -50.11)"><g class="cls-1"><path class="cls-23" d="M230,625.14c3.4-21.24-.28-100.26-.28-100.26s11.61-209.3,79.56-122.35c0,0,0,10.74-.62,29.55-6.71,8.63-17.75,14.49-27.56,17.4-6,6.22-9.91,12-8.71,15.48,2.24,6.48,18.54,5.67,22.9,10.65,2.64,3-21.54.54-30.75,0-.79,5.25,10.2,6.08,13.42,8.67,3.82,3.08-16.54,3.1-21.42,2.56-15,54.16-23,151.9-7.84,185,1.62,2.71,1.08,6.5,1.62,9.75-8.12-4.88-11.92-14.63-16.79-22.22-1.63,31.44-5.13,117.26-7.31,130.06a36.46,36.46,0,0,1-6.41-1.68S226.6,646.38,230,625.14Z"/></g></g></mask><linearGradient id="linear-gradient-49" x1="-8772.69" y1="1487.06" x2="-8911.48" y2="1452.59" xlink:href="#linear-gradient-36"/><linearGradient id="linear-gradient-50" x1="-8840.08" y1="1766.75" x2="-8701.35" y2="1128.59" xlink:href="#linear-gradient-30"/><mask id="mask-7" x="-104.02" y="-50.11" width="268.23" height="775.84" maskUnits="userSpaceOnUse"><g transform="translate(-104.02 -50.11)"><g class="cls-1"><path class="cls-24" d="M139.64,775.84s13.44-149.3,14.69-158.08c.65-4.52,1.52-71.74,8.65-116.23s-3.55-64.92,7.79-106.16,96.29-25.1,96.29-25.1,2.63,82.37,0,89a38.88,38.88,0,0,1-3,5.51c-7,6.84-15.48,12.69-23.51,19,0,.54-1.62,2.16-.54,2.71a20.39,20.39,0,0,0,6,.54c0,5.42-7,8.13-8.67,13.55a65.64,65.64,0,0,0,8.87,0c-.49,1.89-1.05,4.09-1.64,6.54-17.84,4.35-33.92,16.49-45.15,30.87-23.3,29.81-26,67.75-23.84,103.52.54,6,3.79,10.84,7,15.71,1.08,1.63,1.08,4.34,0,5.42a52.17,52.17,0,0,0-11.38,23.31,710.46,710.46,0,0,0-16.16,84.51C146.78,769,139.64,775.84,139.64,775.84Z"/></g></g></mask><linearGradient id="linear-gradient-52" x1="-8582.87" y1="1559.85" x2="-8925.46" y2="1433" xlink:href="#linear-gradient-36"/><mask id="mask-8" x="-104.02" y="-50.11" width="268.23" height="775.84" maskUnits="userSpaceOnUse"><g transform="translate(-104.02 -50.11)"><g class="cls-1"><path class="cls-25" d="M154.33,617.76c.65-4.52,1.52-71.74,8.65-116.23s-3.55-64.92,7.79-106.16,96.29-25.11,96.29-25.11,1.66,52,1,76.67a18,18,0,0,1-10.17,2.66c-19,0-38.47-.54-57.43-2.17-1.63,9.76-3.79,20.06-6,29.81-3.25,14.64,1.62,33.06-10.84,44.44-3.79,3.8-12.46.55-13,1.09-15.71,39-13,84-2.71,124.65-2.71.54-6-2.17-6.5-1.08-11.78,41.4-14.77,83.37-15.34,125.36a24.08,24.08,0,0,0-6.49,4.15S153.08,626.54,154.33,617.76Z"/></g></g></mask><linearGradient id="linear-gradient-54" x1="-8574.13" y1="1550.96" x2="-8897.7" y2="1448.97" xlink:href="#linear-gradient-36"/><linearGradient id="linear-gradient-55" x1="-8738.73" y1="1005.33" x2="-8838.51" y2="1936.65" xlink:href="#linear-gradient-30"/><mask id="mask-9" x="-104.02" y="-50.11" width="275.84" height="415.29" maskUnits="userSpaceOnUse"><g transform="translate(-104.02 -50.11)"><g class="cls-1"><path class="cls-26" d="M164.61,219.21a41.86,41.86,0,0,0-10-.44c-1.07-1.13-1-12.33,1.39-18.86,7.51-5.28,9.56-6,9.56-6s46.73-17.82,88.75-14.73c8.58,4.3,16.22,14.58,20.2,21.18,0,0-7.06,1.89-9.77,3,9.75,3.25,11.13,6.42,11.13,6.42-4.33,31.43-16.53,120.68-18.16,127.72-2.17,10.3,2.66,45.14,2.66,45.14s.77,16.32.09,32.65c-.92-9.23-2.56-18.39-3.83-27.93-1.63-15.72-4.88-30.35-9.21-46.07-3.26-10.29-66.9-89.6-87.48-112.36A77.93,77.93,0,0,1,164.61,219.21Z"/></g></g></mask><linearGradient id="linear-gradient-57" x1="-8274.74" y1="1694.79" x2="-9182.39" y2="1795.81" xlink:href="#linear-gradient-36"/><mask id="mask-10" x="-104.02" y="-50.11" width="260.44" height="448.49" maskUnits="userSpaceOnUse"><g transform="translate(-104.02 -50.11)"><g class="cls-1"><path class="cls-27" d="M260.44,414.88c-.59,14.67-2.34,29.44-6.87,32.5-9.54,6.43-98.4-17-98.4-17s12.4-59.46,11.57-68.91-32.4-136.35-31.08-143.6c.47-2.61,4.47-6.45,9.41-10.28,17.73,43.59,22.34,89.62,33,136.94C187.34,384.62,222.33,408.36,260.44,414.88Z"/></g></g></mask><linearGradient id="linear-gradient-59" x1="-9967.17" y1="1883.07" x2="-8313.46" y2="1663.58" xlink:href="#linear-gradient-36"/><mask id="mask-11" x="-104.02" y="-50.11" width="202.96" height="440.71" maskUnits="userSpaceOnUse"><g transform="translate(-104.02 -50.11)"><g class="cls-1"><path class="cls-5" d="M135.66,217.89c.38-2.12,3.09-5,6.72-8.11,1.28,3.11,17.44,45,21.6,100.87,4.88,30.89,23.81,73.46,39,98.93C191,409,187.24,397.12,181.83,389c-1.4,14.35.34,38.59,16.23,51.72-22.37-4.9-42.89-10.3-42.89-10.3s12.4-59.46,11.57-68.92S134.34,225.14,135.66,217.89Z"/></g></g></mask><linearGradient id="linear-gradient-61" x1="-8454.47" y1="1692.44" x2="-9188.15" y2="1780.78" xlink:href="#linear-gradient-36"/><mask id="mask-12" x="-104.02" y="-50.11" width="315.49" height="443.69" maskUnits="userSpaceOnUse"><g transform="translate(-104.02 -50.11)"><g class="cls-1"><path class="cls-6" d="M299.4,415.54a67,67,0,0,0,15.06-4.08c.36,6.72.7,12.49,1,17,0,0-24.95,13.69-30.24,15.1s-12.48-6.88-14.39-16.57c-.47-2.42-1.37-6.38-2.44-11A126.32,126.32,0,0,0,299.4,415.54Z"/></g></g></mask><linearGradient id="linear-gradient-63" x1="-9981.82" y1="1772.69" x2="-8328.12" y2="1553.2" xlink:href="#linear-gradient-36"/><linearGradient id="linear-gradient-64" x1="-8807.2" y1="1970.2" x2="-8807.2" y2="1644.98" gradientTransform="translate(-8590.96 2054.62) rotate(180)" gradientUnits="userSpaceOnUse"><stop offset="0" stop-color="#90d1f4"/><stop offset="0.99" stop-color="#c3e5f4"/></linearGradient><mask id="mask-13" x="-104.02" y="-50.11" width="252.34" height="308.33" maskUnits="userSpaceOnUse"><g transform="translate(-104.02 -50.11)"><g class="cls-1"><path class="cls-7" d="M226.25,173.66s10.19,4.12,14.83,7.85a7.32,7.32,0,0,1,1.13,1.25c-2,9.59-6.48,18.83-14.69,25,8.26,18.73,16.91,37.06,24.82,55.84-4.76,20.23-10.56,42.64-10.12,44.62.37,1.6-12.43-13-26.18-29.34-5.1-20.85-10.19-43.71-13.59-66.2-11.59-1.65-20.75-8-30.12-15.61-.58-3.78-.88-6.19-.88-6.19S212.19,166.39,226.25,173.66Z"/></g></g></mask><linearGradient id="linear-gradient-66" x1="-8796.5" y1="2213.9" x2="-8806.96" y2="1577.33" xlink:href="#linear-gradient-36"/><linearGradient id="linear-gradient-67" x1="-8751.03" y1="2137.58" x2="-8791.51" y2="1935.2" xlink:href="#linear-gradient-33"/><mask id="mask-14" x="-104.02" y="-50.11" width="228.56" height="177.1" maskUnits="userSpaceOnUse"><g transform="translate(-104.02 -50.11)"><g class="cls-1"><path class="cls-8" d="M193.75,171.66c-16.84-8.45-24.69-38-24.69-38L218.8,145s4.3,19.51,9.76,30.65A51.41,51.41,0,0,1,193.75,171.66Z"/></g></g></mask><linearGradient id="linear-gradient-69" x1="-8815.68" y1="1949.46" x2="-8741.87" y2="1808.47" gradientTransform="translate(-8590.96 2054.62) rotate(180)" xlink:href="#linear-gradient-27"/><linearGradient id="linear-gradient-70" x1="-8808.36" y1="2168.78" x2="-8822.91" y2="1563.84" xlink:href="#linear-gradient-33"/><linearGradient id="linear-gradient-71" x1="-9891.35" y1="1879.26" x2="-7910.9" y2="1730.65" xlink:href="#linear-gradient-30"/><mask id="mask-15" x="-104.02" y="-50.11" width="184.84" height="521.68" maskUnits="userSpaceOnUse"><g transform="translate(-104.02 -50.11)"><g class="cls-1"><path class="cls-9" d="M154.6,459.06c0-2.57-3.13-10.54-3.13-10.54l22.5-9.7s3,4.15,5.8,8.61c-6.85,2.95-18.84,5.51-21.74,12.16-3.8,8.67-6.5,25.55-6.35,28.21,2.16,2.71,11.49,3.9,16.38,5.9,5.28,8.42,12,18,16.47,21.76,1.64,5.13-3.62,7.1-5.13,5.87a8.74,8.74,0,0,1-2.22-3.69s-2.68.09-3.82-1.59S170,511.5,170,511.5s-3.25-.75-4.77-2.15S151,492,150,489,154.6,461.63,154.6,459.06Z"/></g></g></mask><linearGradient id="linear-gradient-73" x1="-8665.95" y1="1626.32" x2="-8823.72" y2="1545.97" gradientTransform="translate(-8590.96 2054.62) rotate(180)" xlink:href="#linear-gradient-27"/><mask id="mask-16" x="-104.02" y="-50.11" width="184.84" height="521.6" maskUnits="userSpaceOnUse"><g transform="translate(-104.02 -50.11)"><g class="cls-1"><path class="cls-10" d="M182.37,515.81c-5.22-8.27-14.76-22.3-14.3-22.11,5.27,8.42,12,18,16.46,21.76,1.17,3.66-1.18,5.71-3.16,6.14A4.86,4.86,0,0,0,182.37,515.81Z"/></g></g></mask><linearGradient id="linear-gradient-75" x1="-8815.63" y1="1477.79" x2="-8718.19" y2="1613.94" gradientTransform="translate(-8590.96 2054.62) rotate(180)" xlink:href="#linear-gradient-27"/><mask id="mask-17" x="-104.02" y="-50.11" width="164.59" height="497.18" maskUnits="userSpaceOnUse"><g transform="translate(-104.02 -50.11)"><g class="cls-1"><path class="cls-11" d="M164.59,497.18a10,10,0,0,1-.64-1.43C164.15,496.24,164.37,496.71,164.59,497.18Z"/></g></g></mask><linearGradient id="linear-gradient-77" x1="-8757.7" y1="1554.7" x2="-8752.84" y2="1561.48" gradientTransform="translate(-8590.96 2054.62) rotate(180)" xlink:href="#linear-gradient-27"/><mask id="mask-18" x="-104.02" y="-50.11" width="177.2" height="517.7" maskUnits="userSpaceOnUse"><g transform="translate(-104.02 -50.11)"><g class="cls-1"><path class="cls-12" d="M166.21,508.62c-1.62-3-5-9.14-6.6-12.86,3.8,7,9.34,13.09,14.22,19-2.51-6.53-6.46-11.74-9.24-17.63,3.5,6.58,10.52,17.31,12.61,20.52a.17.17,0,0,1,0-.07s-2.68.1-3.82-1.58-3.37-4.56-3.37-4.56-3.24-.74-4.76-2.14-12.57-15.3-14.87-19.58C155.24,496,160.36,503.1,166.21,508.62Z"/></g></g></mask><linearGradient id="linear-gradient-79" x1="-8817" y1="1465.16" x2="-8695.76" y2="1634.56" gradientTransform="translate(-8590.96 2054.62) rotate(180)" xlink:href="#linear-gradient-27"/><mask id="mask-19" x="-104.02" y="-50.11" width="186.34" height="485.68" maskUnits="userSpaceOnUse"><g transform="translate(-104.02 -50.11)"><g class="cls-1"><path class="cls-13" d="M174.93,462c3.95,3,3.65,10.47,7.44,17.52a4.1,4.1,0,0,0,4,2.23c-.23,1-.42,1.94-.51,2.52-.58,3.78-7.63-.64-7.82-5.1s-2.4-11.41-3.43-12A25.43,25.43,0,0,0,174.93,462Z"/></g></g></mask><linearGradient id="linear-gradient-81" x1="-8894.95" y1="1405.38" x2="-8650.74" y2="1746.59" gradientTransform="translate(-8590.96 2054.62) rotate(180)" xlink:href="#linear-gradient-27"/><linearGradient id="linear-gradient-82" x1="-8662.76" y1="1013.47" x2="-8762.54" y2="1944.79" xlink:href="#linear-gradient-30"/><mask id="mask-20" x="-104.02" y="-50.11" width="180.43" height="444.99" maskUnits="userSpaceOnUse"><g transform="translate(-104.02 -50.11)"><g class="cls-1"><path class="cls-14" d="M141.19,361.35c2.71-16.26,7.05-32,9.21-48.78,4.22-34.24-5-66.85-16.63-98.55a32.3,32.3,0,0,1,5.9-1.8s19.88,72.36,17.9,92.64c-.74,7.58-6.28,39-6.28,39S176,424,180.43,436.67c0,0-8.28,4.36-16.79,8.32-.11-29.28-6.19-58.49-19.74-85.27C143.9,359.18,142.28,360.26,141.19,361.35Z"/></g></g></mask><linearGradient id="linear-gradient-84" x1="-8867.42" y1="1715.56" x2="-8665" y2="1732.51" xlink:href="#linear-gradient-36"/><mask id="mask-21" x="-104.02" y="-50.11" width="224.28" height="92.93" maskUnits="userSpaceOnUse"><g transform="translate(-104.02 -50.11)"><g class="cls-1"><path class="cls-16" d="M176.41,86.57c-2.06.19-2.76,3-3.36,6.36-.1-6.81.33-12.53,3.51-11.22a52.59,52.59,0,0,0,44.78-2.27,28.38,28.38,0,0,1,2.94,3.84C210.79,90.31,195.92,91.44,176.41,86.57Z"/></g></g></mask><linearGradient id="linear-gradient-86" x1="-8790.48" y1="2008.32" x2="-8788.42" y2="1911.11" gradientTransform="translate(-8590.96 2054.62) rotate(180)" xlink:href="#linear-gradient-27"/><mask id="mask-22" x="-104.02" y="-50.11" width="173.04" height="132.95" maskUnits="userSpaceOnUse"><g transform="translate(-104.02 -50.11)"><g class="cls-1"><path class="cls-17" d="M173,133s-3.84-18.89-9-20.95-5,9.85,1.38,12.81C166.32,125.5,173,133,173,133Z"/></g></g></mask><linearGradient id="linear-gradient-88" x1="-8816.15" y1="1949.44" x2="-8715.56" y2="1919.31" gradientTransform="translate(-8590.96 2054.62) rotate(180)" xlink:href="#linear-gradient-27"/><linearGradient id="linear-gradient-89" x1="-8738.83" y1="1429.16" x2="-8716.49" y2="1069.53" xlink:href="#linear-gradient-44"/><mask id="mask-23" x="-104.02" y="-50.11" width="220.51" height="133.63" maskUnits="userSpaceOnUse"><g transform="translate(-104.02 -50.11)"><g class="cls-1"><path class="cls-18" d="M210.22,105.77S220.68,129,220.5,131s-14,2.65-14,2.65S209.51,107.54,210.22,105.77Z"/></g></g></mask><linearGradient id="linear-gradient-91" x1="-8816.83" y1="1934.11" x2="-8795.75" y2="1935.08" gradientTransform="translate(-8590.96 2054.62) rotate(180)" xlink:href="#linear-gradient-27"/><linearGradient id="linear-gradient-92" x1="-8802.41" y1="1914.53" x2="-8704.64" y2="1932.97" xlink:href="#linear-gradient-33"/><linearGradient id="linear-gradient-93" x1="-8785.29" y1="1961.42" x2="-8785.01" y2="1920.15" xlink:href="#linear-gradient-33"/><linearGradient id="linear-gradient-94" x1="-8814.04" y1="1964.87" x2="-8813.76" y2="1923.61" xlink:href="#linear-gradient-33"/><linearGradient id="linear-gradient-95" x1="-8779.4" y1="1105.12" x2="-8767.61" y2="1162.78" gradientTransform="translate(-8275.19 2674.55) rotate(170.5)" xlink:href="#linear-gradient-33"/><linearGradient id="linear-gradient-96" x1="1733.98" y1="1179.34" x2="1745.62" y2="1236.24" gradientTransform="matrix(0.85, -0.13, -0.15, -0.99, -1071.97, 1523.74)" xlink:href="#linear-gradient-33"/><mask id="mask-24" x="-104.02" y="-50.11" width="252.6" height="343.56" maskUnits="userSpaceOnUse"><g transform="translate(-104.02 -50.11)"><g class="cls-1"><path class="cls-19" d="M236.19,341.87c.05,1.11,3.76,1.86,8.29,1.66s8.17-1.25,8.12-2.37-3.76-1.85-8.29-1.66S236.14,340.76,236.19,341.87Z"/></g></g></mask><linearGradient id="linear-gradient-98" x1="-8855.42" y1="1513.18" x2="-8856.19" y2="1491.02" gradientTransform="translate(-8538.72 2224.65) rotate(177.54)" xlink:href="#linear-gradient-36"/><linearGradient id="linear-gradient-99" x1="-8871.58" y1="1426.28" x2="-8844.89" y2="1556.78" gradientTransform="translate(-8538.72 2224.65) rotate(177.54)" xlink:href="#linear-gradient-33"/><mask id="mask-25" x="-104.02" y="-50.11" width="258.18" height="384.49" maskUnits="userSpaceOnUse"><g transform="translate(-104.02 -50.11)"><g class="cls-1"><path class="cls-20" d="M241.77,382.8c0,1.11,3.76,1.86,8.29,1.66s8.17-1.25,8.12-2.37-3.76-1.85-8.29-1.66S241.72,381.69,241.77,382.8Z"/></g></g></mask><linearGradient id="linear-gradient-101" x1="-8859.23" y1="1472.05" x2="-8860.01" y2="1449.88" gradientTransform="translate(-8538.72 2224.65) rotate(177.54)" xlink:href="#linear-gradient-36"/><linearGradient id="linear-gradient-102" x1="-8875.4" y1="1385.15" x2="-8848.7" y2="1515.65" gradientTransform="translate(-8538.72 2224.65) rotate(177.54)" xlink:href="#linear-gradient-33"/></defs><g id="Layer_2" data-name="Layer 2"><g id="Layer_1-2" data-name="Layer 1"><path class="cls-29" d="M418.69,213c7.5-10.53,11.65-23.61,13.77-26.85s8.61-6.42,8.82,1.17S424.63,210.88,418.69,213Z" transform="translate(-104.02 -50.11)"/><path class="cls-30" d="M421.12,251.08s12.77-23,16.41-27.23,17-15.19,19.13-17.46,14.87-27.78,17.53-32a3.5,3.5,0,0,0-2.63-1.61c1.82-2.8,3.08-4.55,3.08-4.55,1.54-1.81-5.12-4.58-8.27-1.33l-4.16,4.29c-2.3-3.38-5.74-2.15-8.84.57a28.08,28.08,0,0,0-5.18,6.35c-2.43-2.36-5.83,1.32-8.05,4.72s-10.86,15.29-12.43,16.91-19.29,8.25-16.17,25l-10,14.49,23.28,14.93Z" transform="translate(-104.02 -50.11)"/><g id="SVGID"><g class="cls-31"><g class="cls-32"><path class="cls-3" d="M401.58,239.23l10-14.49c-.1-.56-.18-1.11-.24-1.66.54.21,1.07.43,1.61.61-.63-6,5.63-14.5,10.11-17.36,10.29-6.59,15.62-15.39,25.17-28.22-4.43,9.13-8.2,21.87-4.88,24.67,2.9-4.22,11.24-19.78,18.9-31.6-7.41,14.8-16.2,29.7-10,32.91,3.77-6.76,21.2-34.11,19.38-31.31a4.36,4.36,0,0,1,1.2.37c-5.36,8.52-13.51,17.6-12.37,27a50.62,50.62,0,0,1-3.73,6.23c-2.12,2.27-15.49,13.21-19.13,17.46s-16.41,27.23-16.41,27.23l3.74,3.08Z" transform="translate(-104.02 -50.11)"/></g></g></g><path class="cls-33" d="M401.58,239.23l10-14.49c-.1-.56-.18-1.11-.24-1.66.54.21,1.07.43,1.61.61-.63-6,5.63-14.5,10.11-17.36,10.29-6.59,15.62-15.39,25.17-28.22-4.43,9.13-8.2,21.87-4.88,24.67,2.9-4.22,11.24-19.78,18.9-31.6-7.41,14.8-16.2,29.7-10,32.91,3.77-6.76,21.2-34.11,19.38-31.31a4.36,4.36,0,0,1,1.2.37c-5.36,8.52-13.51,17.6-12.37,27a50.62,50.62,0,0,1-3.73,6.23c-2.12,2.27-15.49,13.21-19.13,17.46s-16.41,27.23-16.41,27.23l3.74,3.08Z" transform="translate(-104.02 -50.11)"/><g id="SVGID-2" data-name="SVGID"><g class="cls-31"><g class="cls-34"><path class="cls-4" d="M414.35,227.41c7.76-6.44,17.13-17.26,20.18-18.86,5.1-2.62,15.56-2.53,22.4-2.49l-.27.33c-2.12,2.27-15.49,13.21-19.13,17.46s-16.41,27.23-16.41,27.23l3.74,3.08-23.28-14.93,5.55-8.08a40.49,40.49,0,0,0,15.64,8.38C419.61,235.06,411.77,229.56,414.35,227.41Z" transform="translate(-104.02 -50.11)"/></g></g></g><path class="cls-35" d="M414.35,227.41c7.76-6.44,17.13-17.26,20.18-18.86,5.1-2.62,15.56-2.53,22.4-2.49l-.27.33c-2.12,2.27-15.49,13.21-19.13,17.46s-16.41,27.23-16.41,27.23l3.74,3.08-23.28-14.93,5.55-8.08a40.49,40.49,0,0,0,15.64,8.38C419.61,235.06,411.77,229.56,414.35,227.41Z" transform="translate(-104.02 -50.11)"/><path class="cls-36" d="M432,242.24l-4.89,8.11-21.56-19.16,3.55-5.22S429.28,241.7,432,242.24Z" transform="translate(-104.02 -50.11)"/><path class="cls-37" d="M265.84,180.94s22.65,1.56,35.59,21.22,43.4,71.73,53.87,80.63c0,0,41.18-45.17,49.14-54.77,0,0,19.32,17.76,26.06,23,0,0-43.21,59.17-51.09,71s-14.75,21-35.06,13.89-48.61-38.05-48.61-38.05Z" transform="translate(-104.02 -50.11)"/><path class="cls-38" d="M301.76,217.65c9.37,30.75,14.06,64.1,37,87,3.64-4.17,5.21-14.59,10.94-12,4.69,1.56,5.21,10.94,10.94,12,9.38,1.57,17.71-4.17,22.92-12.51C394.49,275.5,408,264,421.06,249.44a44.64,44.64,0,0,0,3.05-3.75c2.55,2.22,4.82,4.14,6.39,5.37,0,0-43.21,59.17-51.09,71s-14.75,21-35.06,13.89-48.61-38.05-48.61-38.05l-29.9-117a51.82,51.82,0,0,1,22.61,8.24A108.32,108.32,0,0,1,301.76,217.65Z" transform="translate(-104.02 -50.11)"/><path class="cls-39" d="M293.94,209.31c13,21.37,15.11,45.34,20.84,69.31,3.65,14.08,11.46,31.27,25,32.32,4.17,0,2.6-17.2,8.85-13.55,6.78,3.65,2.09,17.72,10.43,22.41,2.6,1.56,2.6-4.69,3.64-7.3,2.09,2.09,3.65,6.26,7.3,3.65,23.65-19.78,40.95-43.31,57.7-67.37,1.06.89,2,1.68,2.79,2.29,0,0-43.21,59.16-51.09,71s-14.75,21-35.06,13.89-48.61-38.05-48.61-38.05l-29.9-117a49,49,0,0,1,13.7,3.55C285.31,191.75,289.25,201.18,293.94,209.31Z" transform="translate(-104.02 -50.11)"/><path class="cls-40" d="M180.68,792.43s.85,11.49-1.25,13-11.64,4.1-12.23,7.93-1.66,15.21-2.91,18.75S140,851.54,124.82,848.82c-16.28-2.91-12.61-14.57-11.9-18.72a40.52,40.52,0,0,1,3.29-9.25Z" transform="translate(-104.02 -50.11)"/><path class="cls-41" d="M180.15,786.56s1.64,6.2-.49,8.55-10.32,7.15-11.64,13.52-2.53,11.36-3.56,14.75c-2.29,7.59-27.6,20.72-38.82,18s-12.94-13.94-10.31-19S132.59,797.6,135,792.89s1.25-.06,7.59-17.73S180.15,786.56,180.15,786.56Z" transform="translate(-104.02 -50.11)"/><g id="SVGID-3" data-name="SVGID"><g class="cls-31"><g class="cls-42"><path class="cls-15" d="M115.32,822.38c.34-.65.89-1.55,1.58-2.63.53,7.39,3.39,13.76,11,14.64,9.57,1,26.85-4.56,30.63-18.69,3.64-13.68,13-22.19,12.71-23-4.36-10.19-16.53-19.93-28.75-17.21l.11-.29c6.34-17.67,37.57,11.4,37.57,11.4s1.64,6.2-.49,8.55-10.32,7.15-11.64,13.52-2.53,11.36-3.56,14.75c-2.29,7.59-27.6,20.72-38.82,18S112.7,827.4,115.32,822.38Z" transform="translate(-104.02 -50.11)"/></g></g></g><path class="cls-43" d="M115.32,822.38c.34-.65.89-1.55,1.58-2.63.53,7.39,3.39,13.76,11,14.64,9.57,1,26.85-4.56,30.63-18.69,3.64-13.68,13-22.19,12.71-23-4.36-10.19-16.53-19.93-28.75-17.21l.11-.29c6.34-17.67,37.57,11.4,37.57,11.4s1.64,6.2-.49,8.55-10.32,7.15-11.64,13.52-2.53,11.36-3.56,14.75c-2.29,7.59-27.6,20.72-38.82,18S112.7,827.4,115.32,822.38Z" transform="translate(-104.02 -50.11)"/><path class="cls-44" d="M166.79,776.14c-2.35,3.83-14.43,30.3-16.5,33.46s-25.47-1.48-25.47-1.48,14.29-29.23,18.33-36.78S167,771.2,166.79,776.14Z" transform="translate(-104.02 -50.11)"/><path class="cls-45" d="M331.69,828.67s-3-16.89-31.45-22.16c-23.65-10.47-36.4-26.53-38.15-31.2s-19,4.66-23.65,11.59-10.16-2.87-13.38-5.59-8.45,26-8.45,26c.27,2.46,16.68,3.75,22.16,5.23,0,0,18.36,14,28.56,18.12S331.69,828.67,331.69,828.67Z" transform="translate(-104.02 -50.11)"/><g id="SVGID-4" data-name="SVGID"><g class="cls-31"><g class="cls-46"><path class="cls-21" d="M221.33,787.16c.73,3,40.24-15.12,42.49-12.78-20,10.71-17.59,21.19-34.41,23.89,5.72,3.18,14-.63,18.43,4.45,5.72,7,11.44,13.35,19.06,15.89,18.22,6.27,39.49,7.93,57.44-1.38,6.35,5.78,7.35,11.44,7.35,11.44s-54.15,6.13-64.36,2-28.56-18.12-28.56-18.12c-5.48-1.48-21.89-2.77-22.16-5.23A206.49,206.49,0,0,1,221.33,787.16Z" transform="translate(-104.02 -50.11)"/></g></g></g><path class="cls-47" d="M221.33,787.16c.73,3,40.24-15.12,42.49-12.78-20,10.71-17.59,21.19-34.41,23.89,5.72,3.18,14-.63,18.43,4.45,5.72,7,11.44,13.35,19.06,15.89,18.22,6.27,39.49,7.93,57.44-1.38,6.35,5.78,7.35,11.44,7.35,11.44s-54.15,6.13-64.36,2-28.56-18.12-28.56-18.12c-5.48-1.48-21.89-2.77-22.16-5.23A206.49,206.49,0,0,1,221.33,787.16Z" transform="translate(-104.02 -50.11)"/><path class="cls-48" d="M332.34,834.67c-2.15.31-51.15,1.26-56.14.37s-21.85-11.57-21.85-11.57,15.38,6.39,19.15,7,55.84-3.9,57.68-3.49S334.18,834.4,332.34,834.67Z" transform="translate(-104.02 -50.11)"/><path class="cls-49" d="M242,815l-1.37,3.49s-23.88-3.47-25.07-5.12,1.79-9.83,1.79-9.83S238.89,809.22,242,815Z" transform="translate(-104.02 -50.11)"/><path class="cls-50" d="M300.18,806.48s-16.67,1.91-19.14,1.29-25.2-20.45-27.23-32.17c0,0,6.86-5.43,10-1.22S283.08,798.91,300.18,806.48Z" transform="translate(-104.02 -50.11)"/><path class="cls-51" d="M322.47,823.77s-30,4.31-51.31.5c.89-6.12,6.55-12.31,6.55-12.31s19.1,6.94,39.7,5.8C317.41,817.76,322.07,820.19,322.47,823.77Z" transform="translate(-104.02 -50.11)"/><path class="cls-52" d="M309.28,402.53s3.13,190.94-42.74,373c0,0-10.72-5.81-25.5,9.92-8.5,9-21.23,2.27-21.23,2.27S226.6,646.38,230,625.14s-.28-100.26-.28-100.26S241.33,315.58,309.28,402.53Z" transform="translate(-104.02 -50.11)"/><g id="SVGID-5" data-name="SVGID"><g class="cls-31"><g class="cls-53"><path class="cls-22" d="M219.79,787.71S226.58,646.38,230,625.14s-.29-100.26-.29-100.26,11.61-209.3,79.57-122.35c0,0,.23,14.58-.39,39.52a36.38,36.38,0,0,0-13.58,9.17c-1.08,1.63-2.71,5.42-1.62,8.13,3.79,6.5,6,14.09,3.79,21.14-1.62,3.79-7.58,4.87-11.38,7.58-7.58,6.51-13.54,14.09-16.25,23.31-6,18.42-13.54,35.77-17.34,54.73-6,29.27-8.12,58,8.13,84.55,1.08,1.63,1.08,4.34.54,6.5-9.75,35.23-22.75,68.29-24.92,104.06q-1.08,14-.8,28C227.86,792,219.79,787.71,219.79,787.71Z" transform="translate(-104.02 -50.11)"/></g></g></g><path class="cls-54" d="M219.79,787.71S226.58,646.38,230,625.14s-.29-100.26-.29-100.26,11.61-209.3,79.57-122.35c0,0,.23,14.58-.39,39.52a36.38,36.38,0,0,0-13.58,9.17c-1.08,1.63-2.71,5.42-1.62,8.13,3.79,6.5,6,14.09,3.79,21.14-1.62,3.79-7.58,4.87-11.38,7.58-7.58,6.51-13.54,14.09-16.25,23.31-6,18.42-13.54,35.77-17.34,54.73-6,29.27-8.12,58,8.13,84.55,1.08,1.63,1.08,4.34.54,6.5-9.75,35.23-22.75,68.29-24.92,104.06q-1.08,14-.8,28C227.86,792,219.79,787.71,219.79,787.71Z" transform="translate(-104.02 -50.11)"/><g id="SVGID-6" data-name="SVGID"><g class="cls-31"><g class="cls-55"><path class="cls-23" d="M230,625.14c3.4-21.24-.28-100.26-.28-100.26s11.61-209.3,79.56-122.35c0,0,0,10.74-.62,29.55-6.71,8.63-17.75,14.49-27.56,17.4-6,6.22-9.91,12-8.71,15.48,2.24,6.48,18.54,5.67,22.9,10.65,2.64,3-21.54.54-30.75,0-.79,5.25,10.2,6.08,13.42,8.67,3.82,3.08-16.54,3.1-21.42,2.56-15,54.16-23,151.9-7.84,185,1.62,2.71,1.08,6.5,1.62,9.75-8.12-4.88-11.92-14.63-16.79-22.22-1.63,31.44-5.13,117.26-7.31,130.06a36.46,36.46,0,0,1-6.41-1.68S226.6,646.38,230,625.14Z" transform="translate(-104.02 -50.11)"/></g></g></g><path class="cls-56" d="M230,625.14c3.4-21.24-.28-100.26-.28-100.26s11.61-209.3,79.56-122.35c0,0,0,10.74-.62,29.55-6.71,8.63-17.75,14.49-27.56,17.4-6,6.22-9.91,12-8.71,15.48,2.24,6.48,18.54,5.67,22.9,10.65,2.64,3-21.54.54-30.75,0-.79,5.25,10.2,6.08,13.42,8.67,3.82,3.08-16.54,3.1-21.42,2.56-15,54.16-23,151.9-7.84,185,1.62,2.71,1.08,6.5,1.62,9.75-8.12-4.88-11.92-14.63-16.79-22.22-1.63,31.44-5.13,117.26-7.31,130.06a36.46,36.46,0,0,1-6.41-1.68S226.6,646.38,230,625.14Z" transform="translate(-104.02 -50.11)"/><path class="cls-57" d="M267.06,370.27s2.63,82.37,0,89S253,479.43,247.87,494.65s-26.81,121.63-31.51,137.22-35.05,155.55-35.05,155.55c-2.6,2.66-12.34-10-21.6-15.33-10.06-5.81-20.07,3.75-20.07,3.75s13.44-149.3,14.69-158.08c.65-4.52,1.52-71.74,8.65-116.23s-3.55-64.92,7.79-106.15S267.06,370.27,267.06,370.27Z" transform="translate(-104.02 -50.11)"/><g id="SVGID-7" data-name="SVGID"><g class="cls-31"><g class="cls-58"><path class="cls-24" d="M139.64,775.84s13.44-149.3,14.69-158.08c.65-4.52,1.52-71.74,8.65-116.23s-3.55-64.92,7.79-106.16,96.29-25.1,96.29-25.1,2.63,82.37,0,89a38.88,38.88,0,0,1-3,5.51c-7,6.84-15.48,12.69-23.51,19,0,.54-1.62,2.16-.54,2.71a20.39,20.39,0,0,0,6,.54c0,5.42-7,8.13-8.67,13.55a65.64,65.64,0,0,0,8.87,0c-.49,1.89-1.05,4.09-1.64,6.54-17.84,4.35-33.92,16.49-45.15,30.87-23.3,29.81-26,67.75-23.84,103.52.54,6,3.79,10.84,7,15.71,1.08,1.63,1.08,4.34,0,5.42a52.17,52.17,0,0,0-11.38,23.31,710.46,710.46,0,0,0-16.16,84.51C146.78,769,139.64,775.84,139.64,775.84Z" transform="translate(-104.02 -50.11)"/></g></g></g><path class="cls-59" d="M139.64,775.84s13.44-149.3,14.69-158.08c.65-4.52,1.52-71.74,8.65-116.23s-3.55-64.92,7.79-106.16,96.29-25.1,96.29-25.1,2.63,82.37,0,89a38.88,38.88,0,0,1-3,5.51c-7,6.84-15.48,12.69-23.51,19,0,.54-1.62,2.16-.54,2.71a20.39,20.39,0,0,0,6,.54c0,5.42-7,8.13-8.67,13.55a65.64,65.64,0,0,0,8.87,0c-.49,1.89-1.05,4.09-1.64,6.54-17.84,4.35-33.92,16.49-45.15,30.87-23.3,29.81-26,67.75-23.84,103.52.54,6,3.79,10.84,7,15.71,1.08,1.63,1.08,4.34,0,5.42a52.17,52.17,0,0,0-11.38,23.31,710.46,710.46,0,0,0-16.16,84.51C146.78,769,139.64,775.84,139.64,775.84Z" transform="translate(-104.02 -50.11)"/><g id="SVGID-8" data-name="SVGID"><g class="cls-31"><g class="cls-60"><path class="cls-25" d="M154.33,617.76c.65-4.52,1.52-71.74,8.65-116.23s-3.55-64.92,7.79-106.16,96.29-25.11,96.29-25.11,1.66,52,1,76.67a18,18,0,0,1-10.17,2.66c-19,0-38.47-.54-57.43-2.17-1.63,9.76-3.79,20.06-6,29.81-3.25,14.64,1.62,33.06-10.84,44.44-3.79,3.8-12.46.55-13,1.09-15.71,39-13,84-2.71,124.65-2.71.54-6-2.17-6.5-1.08-11.78,41.4-14.77,83.37-15.34,125.36a24.08,24.08,0,0,0-6.49,4.15S153.08,626.54,154.33,617.76Z" transform="translate(-104.02 -50.11)"/></g></g></g><path class="cls-61" d="M154.33,617.76c.65-4.52,1.52-71.74,8.65-116.23s-3.55-64.92,7.79-106.16,96.29-25.11,96.29-25.11,1.66,52,1,76.67a18,18,0,0,1-10.17,2.66c-19,0-38.47-.54-57.43-2.17-1.63,9.76-3.79,20.06-6,29.81-3.25,14.64,1.62,33.06-10.84,44.44-3.79,3.8-12.46.55-13,1.09-15.71,39-13,84-2.71,124.65-2.71.54-6-2.17-6.5-1.08-11.78,41.4-14.77,83.37-15.34,125.36a24.08,24.08,0,0,0-6.49,4.15S153.08,626.54,154.33,617.76Z" transform="translate(-104.02 -50.11)"/><path class="cls-62" d="M276.28,183.15c4.18,1.29,19.88,34.79,27.21,82.52s9.81,133.13,12,162.77c0,0-24.95,13.69-30.24,15.1s-12.48-6.88-14.39-16.57-10.52-44.33-10.52-44.33,2.76,58.3-6.78,64.74-98.39-17-98.39-17,12.4-59.46,11.56-68.91-32.39-136.35-31.07-143.6,29.87-23.95,29.87-23.95S230.65,169.1,276.28,183.15Z" transform="translate(-104.02 -50.11)"/><g id="SVGID-9" data-name="SVGID"><g class="cls-31"><g class="cls-63"><path class="cls-26" d="M164.61,219.21a41.86,41.86,0,0,0-10-.44c-1.07-1.13-1-12.33,1.39-18.86,7.51-5.28,9.56-6,9.56-6s46.73-17.82,88.75-14.73c8.58,4.3,16.22,14.58,20.2,21.18,0,0-7.06,1.89-9.77,3,9.75,3.25,11.13,6.42,11.13,6.42-4.33,31.43-16.53,120.68-18.16,127.72-2.17,10.3,2.66,45.14,2.66,45.14s.77,16.32.09,32.65c-.92-9.23-2.56-18.39-3.83-27.93-1.63-15.72-4.88-30.35-9.21-46.07-3.26-10.29-66.9-89.6-87.48-112.36A77.93,77.93,0,0,1,164.61,219.21Z" transform="translate(-104.02 -50.11)"/></g></g></g><path class="cls-64" d="M164.61,219.21a41.86,41.86,0,0,0-10-.44c-1.07-1.13-1-12.33,1.39-18.86,7.51-5.28,9.56-6,9.56-6s46.73-17.82,88.75-14.73c8.58,4.3,16.22,14.58,20.2,21.18,0,0-7.06,1.89-9.77,3,9.75,3.25,11.13,6.42,11.13,6.42-4.33,31.43-16.53,120.68-18.16,127.72-2.17,10.3,2.66,45.14,2.66,45.14s.77,16.32.09,32.65c-.92-9.23-2.56-18.39-3.83-27.93-1.63-15.72-4.88-30.35-9.21-46.07-3.26-10.29-66.9-89.6-87.48-112.36A77.93,77.93,0,0,1,164.61,219.21Z" transform="translate(-104.02 -50.11)"/><g id="SVGID-10" data-name="SVGID"><g class="cls-31"><g class="cls-65"><path class="cls-27" d="M260.44,414.88c-.59,14.67-2.34,29.44-6.87,32.5-9.54,6.43-98.4-17-98.4-17s12.4-59.46,11.57-68.91-32.4-136.35-31.08-143.6c.47-2.61,4.47-6.45,9.41-10.28,17.73,43.59,22.34,89.62,33,136.94C187.34,384.62,222.33,408.36,260.44,414.88Z" transform="translate(-104.02 -50.11)"/></g></g></g><path class="cls-66" d="M260.44,414.88c-.59,14.67-2.34,29.44-6.87,32.5-9.54,6.43-98.4-17-98.4-17s12.4-59.46,11.57-68.91-32.4-136.35-31.08-143.6c.47-2.61,4.47-6.45,9.41-10.28,17.73,43.59,22.34,89.62,33,136.94C187.34,384.62,222.33,408.36,260.44,414.88Z" transform="translate(-104.02 -50.11)"/><g id="SVGID-11" data-name="SVGID"><g class="cls-31"><g class="cls-67"><path class="cls-5" d="M135.66,217.89c.38-2.12,3.09-5,6.72-8.11,1.28,3.11,17.44,45,21.6,100.87,4.88,30.89,23.81,73.46,39,98.93C191,409,187.24,397.12,181.83,389c-1.4,14.35.34,38.59,16.23,51.72-22.37-4.9-42.89-10.3-42.89-10.3s12.4-59.46,11.57-68.92S134.34,225.14,135.66,217.89Z" transform="translate(-104.02 -50.11)"/></g></g></g><path class="cls-68" d="M135.66,217.89c.38-2.12,3.09-5,6.72-8.11,1.28,3.11,17.44,45,21.6,100.87,4.88,30.89,23.81,73.46,39,98.93C191,409,187.24,397.12,181.83,389c-1.4,14.35.34,38.59,16.23,51.72-22.37-4.9-42.89-10.3-42.89-10.3s12.4-59.46,11.57-68.92S134.34,225.14,135.66,217.89Z" transform="translate(-104.02 -50.11)"/><g id="SVGID-12" data-name="SVGID"><g class="cls-31"><g class="cls-69"><path class="cls-6" d="M299.4,415.54a67,67,0,0,0,15.06-4.08c.36,6.72.7,12.49,1,17,0,0-24.95,13.69-30.24,15.1s-12.48-6.88-14.39-16.57c-.47-2.42-1.37-6.38-2.44-11A126.32,126.32,0,0,0,299.4,415.54Z" transform="translate(-104.02 -50.11)"/></g></g></g><path class="cls-70" d="M299.4,415.54a67,67,0,0,0,15.06-4.08c.36,6.72.7,12.49,1,17,0,0-24.95,13.69-30.24,15.1s-12.48-6.88-14.39-16.57c-.47-2.42-1.37-6.38-2.44-11A126.32,126.32,0,0,0,299.4,415.54Z" transform="translate(-104.02 -50.11)"/><path class="cls-71" d="M227.62,173.66s10.18,4.12,14.82,7.85,18.8,37.57,17.08,53.49-16.64,70.07-15.93,73.21-49.32-56.37-57.69-67.94-13.08-49.4-13.08-49.4S213.55,166.39,227.62,173.66Z" transform="translate(-104.02 -50.11)"/><g id="SVGID-13" data-name="SVGID"><g class="cls-31"><g class="cls-72"><path class="cls-7" d="M226.25,173.66s10.19,4.12,14.83,7.85a7.32,7.32,0,0,1,1.13,1.25c-2,9.59-6.48,18.83-14.69,25,8.26,18.73,16.91,37.06,24.82,55.84-4.76,20.23-10.56,42.64-10.12,44.62.37,1.6-12.43-13-26.18-29.34-5.1-20.85-10.19-43.71-13.59-66.2-11.59-1.65-20.75-8-30.12-15.61-.58-3.78-.88-6.19-.88-6.19S212.19,166.39,226.25,173.66Z" transform="translate(-104.02 -50.11)"/></g></g></g><path class="cls-73" d="M226.25,173.66s10.19,4.12,14.83,7.85a7.32,7.32,0,0,1,1.13,1.25c-2,9.59-6.48,18.83-14.69,25,8.26,18.73,16.91,37.06,24.82,55.84-4.76,20.23-10.56,42.64-10.12,44.62.37,1.6-12.43-13-26.18-29.34-5.1-20.85-10.19-43.71-13.59-66.2-11.59-1.65-20.75-8-30.12-15.61-.58-3.78-.88-6.19-.88-6.19S212.19,166.39,226.25,173.66Z" transform="translate(-104.02 -50.11)"/><path class="cls-74" d="M226.19,88.36s8.13-29.62-13.51-29.76c-16.71-14.32-39.84-9.75-49.38,8-7.16,7.06-1.7,45.19,1.94,55.69S225.09,94.22,226.19,88.36Z" transform="translate(-104.02 -50.11)"/><path class="cls-30" d="M218.8,145s5.49,24.88,11.93,34.5-41.36,20.33-55.13,7.05c-1-36.35-6.55-53-6.55-53Z" transform="translate(-104.02 -50.11)"/><g id="SVGID-14" data-name="SVGID"><g class="cls-31"><g class="cls-75"><path class="cls-8" d="M193.75,171.66c-16.84-8.45-24.69-38-24.69-38L218.8,145s4.3,19.51,9.76,30.65A51.41,51.41,0,0,1,193.75,171.66Z" transform="translate(-104.02 -50.11)"/></g></g></g><path class="cls-76" d="M193.75,171.66c-16.84-8.45-24.69-38-24.69-38L218.8,145s4.3,19.51,9.76,30.65A51.41,51.41,0,0,1,193.75,171.66Z" transform="translate(-104.02 -50.11)"/><path class="cls-77" d="M212.67,186.21s7.94,10.16,7.54,12.2-2.35,5.85-2.24,7.89c17.78,34,29.7,68,31.26,75.91.85,4.28.81,25.24-3.9,29.85s-17-17.35-18.13-21.68c-2.58-9.45-11-43.15-17.39-81.26-1.23-2.24-7.36-7.13-7.36-7.13l1.15-13.49Z" transform="translate(-104.02 -50.11)"/><path class="cls-78" d="M249.55,178.41s15.34,14.39,17.23,20.22a14.37,14.37,0,0,0-9.19,4.53s7.17,4,10.06,6.73c-2.18,45.17-10.55,101.39-15.36,126.05-14.47-27.58-82.11-106.1-85.79-109.84l4.38-10.47L159,214.16s1-13.42,6.56-20.22l5.43-6.18,1.1-5.15s12.9,36.81,20,49.12c10,17.36,53,68.25,53,68.25s6-59.39,5-69.88-18-56.5-18-56.5Z" transform="translate(-104.02 -50.11)"/><path class="cls-30" d="M174,438.82s9.84,13.65,10.59,18.05,2.73,9.17,3.44,13.89c.44,2.94-1.79,11-2.17,13.49-.58,3.78-7.63-.64-7.82-5.1s-2.4-11.41-3.43-12c0,0-1.82,14,.35,17.14S193,508,184.53,515.46c1.64,5.13-3.62,7.1-5.13,5.86a8.68,8.68,0,0,1-2.22-3.69s-2.68.1-3.82-1.58-3.36-4.56-3.36-4.56-3.25-.74-4.76-2.14S151,492,150,489s4.59-27.39,4.59-30-3.13-10.54-3.13-10.54Z" transform="translate(-104.02 -50.11)"/><g id="SVGID-15" data-name="SVGID"><g class="cls-31"><g class="cls-79"><path class="cls-9" d="M154.6,459.06c0-2.57-3.13-10.54-3.13-10.54l22.5-9.7s3,4.15,5.8,8.61c-6.85,2.95-18.84,5.51-21.74,12.16-3.8,8.67-6.5,25.55-6.35,28.21,2.16,2.71,11.49,3.9,16.38,5.9,5.28,8.42,12,18,16.47,21.76,1.64,5.13-3.62,7.1-5.13,5.87a8.74,8.74,0,0,1-2.22-3.69s-2.68.09-3.82-1.59S170,511.5,170,511.5s-3.25-.75-4.77-2.15S151,492,150,489,154.6,461.63,154.6,459.06Z" transform="translate(-104.02 -50.11)"/></g></g></g><path class="cls-80" d="M154.6,459.06c0-2.57-3.13-10.54-3.13-10.54l22.5-9.7s3,4.15,5.8,8.61c-6.85,2.95-18.84,5.51-21.74,12.16-3.8,8.67-6.5,25.55-6.35,28.21,2.16,2.71,11.49,3.9,16.38,5.9,5.28,8.42,12,18,16.47,21.76,1.64,5.13-3.62,7.1-5.13,5.87a8.74,8.74,0,0,1-2.22-3.69s-2.68.09-3.82-1.59S170,511.5,170,511.5s-3.25-.75-4.77-2.15S151,492,150,489,154.6,461.63,154.6,459.06Z" transform="translate(-104.02 -50.11)"/><g id="SVGID-16" data-name="SVGID"><g class="cls-31"><g class="cls-81"><path class="cls-10" d="M182.37,515.81c-5.22-8.27-14.76-22.3-14.3-22.11,5.27,8.42,12,18,16.46,21.76,1.17,3.66-1.18,5.71-3.16,6.14A4.86,4.86,0,0,0,182.37,515.81Z" transform="translate(-104.02 -50.11)"/></g></g></g><path class="cls-82" d="M182.37,515.81c-5.22-8.27-14.76-22.3-14.3-22.11,5.27,8.42,12,18,16.46,21.76,1.17,3.66-1.18,5.71-3.16,6.14A4.86,4.86,0,0,0,182.37,515.81Z" transform="translate(-104.02 -50.11)"/><g id="SVGID-17" data-name="SVGID"><g class="cls-31"><g class="cls-83"><path class="cls-11" d="M164.59,497.18a10,10,0,0,1-.64-1.43C164.15,496.24,164.37,496.71,164.59,497.18Z" transform="translate(-104.02 -50.11)"/></g></g></g><path class="cls-84" d="M164.59,497.18a10,10,0,0,1-.64-1.43C164.15,496.24,164.37,496.71,164.59,497.18Z" transform="translate(-104.02 -50.11)"/><g id="SVGID-18" data-name="SVGID"><g class="cls-31"><g class="cls-85"><path class="cls-12" d="M166.21,508.62c-1.62-3-5-9.14-6.6-12.86,3.8,7,9.34,13.09,14.22,19-2.51-6.53-6.46-11.74-9.24-17.63,3.5,6.58,10.52,17.31,12.61,20.52a.17.17,0,0,1,0-.07s-2.68.1-3.82-1.58-3.37-4.56-3.37-4.56-3.24-.74-4.76-2.14-12.57-15.3-14.87-19.58C155.24,496,160.36,503.1,166.21,508.62Z" transform="translate(-104.02 -50.11)"/></g></g></g><path class="cls-86" d="M166.21,508.62c-1.62-3-5-9.14-6.6-12.86,3.8,7,9.34,13.09,14.22,19-2.51-6.53-6.46-11.74-9.24-17.63,3.5,6.58,10.52,17.31,12.61,20.52a.17.17,0,0,1,0-.07s-2.68.1-3.82-1.58-3.37-4.56-3.37-4.56-3.24-.74-4.76-2.14-12.57-15.3-14.87-19.58C155.24,496,160.36,503.1,166.21,508.62Z" transform="translate(-104.02 -50.11)"/><g id="SVGID-19" data-name="SVGID"><g class="cls-31"><g class="cls-87"><path class="cls-13" d="M174.93,462c3.95,3,3.65,10.47,7.44,17.52a4.1,4.1,0,0,0,4,2.23c-.23,1-.42,1.94-.51,2.52-.58,3.78-7.63-.64-7.82-5.1s-2.4-11.41-3.43-12A25.43,25.43,0,0,0,174.93,462Z" transform="translate(-104.02 -50.11)"/></g></g></g><path class="cls-88" d="M174.93,462c3.95,3,3.65,10.47,7.44,17.52a4.1,4.1,0,0,0,4,2.23c-.23,1-.42,1.94-.51,2.52-.58,3.78-7.63-.64-7.82-5.1s-2.4-11.41-3.43-12A25.43,25.43,0,0,0,174.93,462Z" transform="translate(-104.02 -50.11)"/><path class="cls-36" d="M224.18,164.56s10.47,8.86,11.69,10.11c.81,6.76-2.64,23.59-12.42,27.8a124.85,124.85,0,0,0-10.78-16.26S225,174.91,224.18,164.56Z" transform="translate(-104.02 -50.11)"/><path class="cls-36" d="M203.6,188.5s-1.11,10.57-1.15,17.94c-13.52-1.2-32.81-17.18-32.81-17.18l5.05-19S180.43,180.94,203.6,188.5Z" transform="translate(-104.02 -50.11)"/><polygon class="cls-36" points="72.61 382.22 76.67 392.46 48.92 406.88 43.93 398.9 72.61 382.22"/><path class="cls-89" d="M157.57,304.86c-.74,7.58-6.28,39-6.28,39S176,424,180.43,436.67c0,0-22.79,12-31.63,14.27,0,0-28.08-60.86-33.89-74.07-7.1-16.17-13.2-38.92-10-51.63S116,251.41,117,235.38c1.23-19.43,22.69-23.15,22.69-23.15S159.55,284.58,157.57,304.86Z" transform="translate(-104.02 -50.11)"/><g id="SVGID-20" data-name="SVGID"><g class="cls-31"><g class="cls-90"><path class="cls-14" d="M141.19,361.35c2.71-16.26,7.05-32,9.21-48.78,4.22-34.24-5-66.85-16.63-98.55a32.3,32.3,0,0,1,5.9-1.8s19.88,72.36,17.9,92.64c-.74,7.58-6.28,39-6.28,39S176,424,180.43,436.67c0,0-8.28,4.36-16.79,8.32-.11-29.28-6.19-58.49-19.74-85.27C143.9,359.18,142.28,360.26,141.19,361.35Z" transform="translate(-104.02 -50.11)"/></g></g></g><path class="cls-91" d="M141.19,361.35c2.71-16.26,7.05-32,9.21-48.78,4.22-34.24-5-66.85-16.63-98.55a32.3,32.3,0,0,1,5.9-1.8s19.88,72.36,17.9,92.64c-.74,7.58-6.28,39-6.28,39S176,424,180.43,436.67c0,0-8.28,4.36-16.79,8.32-.11-29.28-6.19-58.49-19.74-85.27C143.9,359.18,142.28,360.26,141.19,361.35Z" transform="translate(-104.02 -50.11)"/><path class="cls-30" d="M176.56,81.71c-7.52-3.09.36,32.92-5.87,30.19-3.51-4.48-9.46-6.19-11.76-2-3.83,7,2.72,30.6,14.58,27.52,3.24,12.56,22.39,32.76,42.73,28.71C225.82,164.25,241,145,236,126.68c-3.28-12-7.46-35.33-9.5-39.52a32.61,32.61,0,0,0-5.14-7.72A52.6,52.6,0,0,1,176.56,81.71Z" transform="translate(-104.02 -50.11)"/><g id="SVGID-21" data-name="SVGID"><g class="cls-31"><g class="cls-92"><path class="cls-16" d="M176.41,86.57c-2.06.19-2.76,3-3.36,6.36-.1-6.81.33-12.53,3.51-11.22a52.59,52.59,0,0,0,44.78-2.27,28.38,28.38,0,0,1,2.94,3.84C210.79,90.31,195.92,91.44,176.41,86.57Z" transform="translate(-104.02 -50.11)"/></g></g></g><path class="cls-93" d="M176.41,86.57c-2.06.19-2.76,3-3.36,6.36-.1-6.81.33-12.53,3.51-11.22a52.59,52.59,0,0,0,44.78-2.27,28.38,28.38,0,0,1,2.94,3.84C210.79,90.31,195.92,91.44,176.41,86.57Z" transform="translate(-104.02 -50.11)"/><g id="SVGID-22" data-name="SVGID"><g class="cls-31"><g class="cls-94"><path class="cls-17" d="M173,133s-3.84-18.89-9-20.95-5,9.85,1.38,12.81C166.32,125.5,173,133,173,133Z" transform="translate(-104.02 -50.11)"/></g></g></g><path class="cls-95" d="M173,133s-3.84-18.89-9-20.95-5,9.85,1.38,12.81C166.32,125.5,173,133,173,133Z" transform="translate(-104.02 -50.11)"/><path class="cls-96" d="M125.67,811s25.24,2.38,27.56,3.7-9.41,14.77-23.34,16.51c-8.23,1-12.42-8.53-11.48-10.83C119.83,816.86,125.67,811,125.67,811Z" transform="translate(-104.02 -50.11)"/><g id="SVGID-23" data-name="SVGID"><g class="cls-31"><g class="cls-97"><path class="cls-18" d="M210.22,105.77S220.68,129,220.5,131s-14,2.65-14,2.65S209.51,107.54,210.22,105.77Z" transform="translate(-104.02 -50.11)"/></g></g></g><path class="cls-98" d="M210.22,105.77S220.68,129,220.5,131s-14,2.65-14,2.65S209.51,107.54,210.22,105.77Z" transform="translate(-104.02 -50.11)"/><path class="cls-99" d="M224.36,136.8s-12.29,4.65-25.55,1.7C207.56,146.72,218.75,148.18,224.36,136.8Z" transform="translate(-104.02 -50.11)"/><path class="cls-100" d="M172.18,111.62s7.51,37.86,9.73,40.21,21.69,3.91,21.69,3.91c.57-3.59,11.84-3.26,12.64,2.22s-12.76,5.31-13.2,1c-6.53.71-23.22-1-25.32-4.85s-9.86-44.92-9.86-44.92Z" transform="translate(-104.02 -50.11)"/><path class="cls-101" d="M193.74,109.23c-3.73,0-3.15,8.8,1,8.88C198.66,118.17,197.39,109.23,193.74,109.23Z" transform="translate(-104.02 -50.11)"/><path class="cls-102" d="M222.49,105.77c-3.73,0-3.15,8.81,1,8.88C227.41,114.72,226.14,105.77,222.49,105.77Z" transform="translate(-104.02 -50.11)"/><path class="cls-103" d="M181.85,107.68a33.49,33.49,0,0,1,14.63-5.46,1.08,1.08,0,0,0,.6-1.84,5.54,5.54,0,0,0-3.19-1.63C189.79,98.36,183.56,102.56,181.85,107.68Z" transform="translate(-104.02 -50.11)"/><path class="cls-104" d="M230.09,100.88s-3.94-2.08-11.8-.65c-.76.14-1.36-.79-1-1.57a4.9,4.9,0,0,1,2.12-2.48C222.61,94.61,230,97.33,230.09,100.88Z" transform="translate(-104.02 -50.11)"/><g id="SVGID-24" data-name="SVGID"><g class="cls-31"><g class="cls-105"><path class="cls-19" d="M236.19,341.87c.05,1.11,3.76,1.86,8.29,1.66s8.17-1.25,8.12-2.37-3.76-1.85-8.29-1.66S236.14,340.76,236.19,341.87Z" transform="translate(-104.02 -50.11)"/></g></g></g><path class="cls-106" d="M236.19,341.87c.05,1.11,3.76,1.86,8.29,1.66s8.17-1.25,8.12-2.37-3.76-1.85-8.29-1.66S236.14,340.76,236.19,341.87Z" transform="translate(-104.02 -50.11)"/><path class="cls-107" d="M238.82,341.76a5.58,5.58,0,1,0,5.34-5.82A5.58,5.58,0,0,0,238.82,341.76Z" transform="translate(-104.02 -50.11)"/><g id="SVGID-25" data-name="SVGID"><g class="cls-31"><g class="cls-108"><path class="cls-20" d="M241.77,382.8c0,1.11,3.76,1.86,8.29,1.66s8.17-1.25,8.12-2.37-3.76-1.85-8.29-1.66S241.72,381.69,241.77,382.8Z" transform="translate(-104.02 -50.11)"/></g></g></g><path class="cls-109" d="M241.77,382.8c0,1.11,3.76,1.86,8.29,1.66s8.17-1.25,8.12-2.37-3.76-1.85-8.29-1.66S241.72,381.69,241.77,382.8Z" transform="translate(-104.02 -50.11)"/><path class="cls-110" d="M244.4,382.69a5.58,5.58,0,1,0,5.34-5.82A5.58,5.58,0,0,0,244.4,382.69Z" transform="translate(-104.02 -50.11)"/></g></g></svg>